<?xml version="1.0" encoding="UTF-8"?>
<!-- Generator: Adobe Illustrator 19.1.0, SVG Export Plug-In . SVG Version: 6.00 Build 0)  -->
<svg version="1.1" id="Ebene_1" xmlns="http://www.w3.org/2000/svg" xmlns:xlink="http://www.w3.org/1999/xlink" x="0px" y="0px" viewBox="0 0 413.9 64.3" style="enable-background:new 0 0 413.9 64.3;" xml:space="preserve">
<style type="text/css">
	.st0{fill:#6C6F70;}
	.st1{fill:#97BF3D;}
	.st2{fill:#32B5CF;}
</style>
<g>
	<path class="st0" d="M238.8,62.2v2.3h-0.6v-2.3c-2.5-0.1-4-1.2-4-4.4c0-3.3,1.6-4.4,4.3-4.4c2.7,0,4.3,1,4.3,4.4   C242.9,61,241.4,62.1,238.8,62.2z M238.5,54c-2.3,0-3.7,0.9-3.7,3.8c0,2.8,1.3,3.8,3.4,3.8v-1.9h0.6v1.9c2.1-0.1,3.4-1,3.4-3.8   C242.2,54.9,240.9,54,238.5,54z"/>
	<path class="st0" d="M248.5,62.2c-2.7,0-3.8-1.4-3.8-4.4v-4.3h0.6v4.3c0,2.7,1,3.8,3.2,3.8c2.2,0,3.2-1.1,3.2-3.8v-4.3h0.6v4.3   C252.3,60.8,251.2,62.2,248.5,62.2z"/>
	<path class="st0" d="M254.5,62.1v-8.5h6.9v0.5h-6.3v3.2h6.1v0.5h-6.1v3.7h6.3v0.5H254.5z"/>
	<path class="st0" d="M263.1,62.1v-8.5h0.6v8h5.1v0.5H263.1z"/>
	<path class="st0" d="M270.5,62.1v-8.5h0.6v8h5.1v0.5H270.5z"/>
	<path class="st0" d="M277.8,62.1v-8.5h6.9v0.5h-6.3v3.2h6.1v0.5h-6.1v3.7h6.3v0.5H277.8z"/>
	<path class="st0" d="M295.8,62.1h-3.7v-8.5h3.7c2.7,0,4.6,0.9,4.6,4.3C300.3,61.2,298.5,62.1,295.8,62.1z M295.8,54.1h-3.1v7.4h3.1   c2.5,0,4-0.9,4-3.7C299.7,55,298.3,54.1,295.8,54.1z"/>
	<path class="st0" d="M302.3,62.1v-8.5h6.9v0.5h-6.3v3.2h6.1v0.5h-6.1v3.7h6.3v0.5H302.3z"/>
	<path class="st0" d="M318,62.1l-3.5-3.2h-3v3.2h-0.6v-8.5h4.1c2.4,0,3.8,0.5,3.8,2.7c0,2-1.3,2.6-3.4,2.7l3.5,3.2H318z M315,54.1   h-3.5v4.3h3.5c2.3,0,3.2-0.6,3.2-2.1C318.2,54.7,317.3,54.1,315,54.1z"/>
	<path class="st0" d="M334,54.5c-0.9-0.2-2.3-0.5-3.6-0.5c-2.3,0-3.8,0.9-3.8,3.8c0,2.9,1.5,3.8,3.8,3.8c1,0,2.1-0.1,3-0.2v-3.3H330   v-0.5h4v4.4c-0.8,0.1-2.1,0.3-3.6,0.3c-2.7,0-4.4-1-4.4-4.4c0-3.3,1.7-4.4,4.4-4.4c1.6,0,2.9,0.3,3.7,0.5L334,54.5z"/>
	<path class="st0" d="M336.2,62.1v-8.5h6.9v0.5h-6.3v3.2h6.1v0.5h-6.1v3.7h6.3v0.5H336.2z"/>
	<path class="st0" d="M348,62.2c-1,0-2.3-0.1-3.2-0.2l0.1-0.5c0.9,0.1,2.2,0.2,3.2,0.2c2.6,0,3.4-0.4,3.4-1.9c0-3.7-6.8,0.2-6.8-4   c0-1.8,1.3-2.3,3.8-2.3c1,0,2.3,0.1,3.3,0.2l-0.1,0.5c-0.9-0.1-2.3-0.2-3.2-0.2c-1.3,0-3.2,0.1-3.2,1.8c0,3.3,6.8-0.5,6.8,4   C352,62.1,350.1,62.2,348,62.2z"/>
	<path class="st0" d="M357.6,62.2c-2.7,0-3.8-1.4-3.8-4.4v-4.3h0.6v4.3c0,2.7,1,3.8,3.2,3.8s3.2-1.1,3.2-3.8v-4.3h0.6v4.3   C361.3,60.8,360.3,62.2,357.6,62.2z"/>
	<path class="st0" d="M370.7,62.1l-6.6-7.6v7.6h-0.6v-8.5h0.6l6.6,7.6v-7.6h0.6v8.5H370.7z"/>
	<path class="st0" d="M377.3,62.1h-3.7v-8.5h3.7c2.7,0,4.6,0.9,4.6,4.3C381.9,61.2,380,62.1,377.3,62.1z M377.3,54.1h-3.1v7.4h3.1   c2.5,0,4-0.9,4-3.7C381.3,55,379.8,54.1,377.3,54.1z"/>
	<path class="st0" d="M390.8,62.1v-4.3h-6.3v4.3h-0.6v-8.5h0.6v3.7h6.3v-3.7h0.6v8.5H390.8z"/>
	<path class="st0" d="M393.6,62.1v-8.5h6.9v0.5h-6.3v3.2h6.1v0.5h-6.1v3.7h6.3v0.5H393.6z"/>
	<path class="st0" d="M402.3,62.1v-8.5h0.6v8.5H402.3z"/>
	<path class="st0" d="M409,54.1v8h-0.6v-8h-4v-0.5h8.5v0.5H409z"/>
</g>
<g>
	<path class="st0" d="M95.9,43.6v-9.8H82v9.8h-5V20.4h5v9.1h13.9v-9.1h5v23.2H95.9z"/>
	<path class="st0" d="M117.5,43.9c-8.6,0-11.9-4.3-11.9-11.9V20.4h5V32c0,5,2.2,7.2,7,7.2c4.8,0,7-2.2,7-7.2V20.4h5V32   C129.4,39.6,126.1,43.9,117.5,43.9z"/>
	<path class="st0" d="M161.9,43.6V28.1L152,40.2h-3L139,28.1v15.5h-5V20.4h5l11.4,14.1l11.4-14.1h5v23.2H161.9z"/>
	<path class="st0" d="M198.4,43.6l-2-3h-19.2l-2,3h-6.1l15.5-23.2h4.5l15.5,23.2H198.4z M186.8,26.2l-6.8,10.1h13.5L186.8,26.2z"/>
	<path class="st0" d="M226.4,43.5l-14.6-15.7v15.7h-5V20.4h5L226.4,36V20.4h5v23.2H226.4z"/>
	<path class="st0" d="M246.6,21.9v21.7H245V21.9h-10.8v-1.5h23.2v1.5H246.6z"/>
	<path class="st0" d="M279.1,43.6V32h-17.2v11.6h-1.7V20.4h1.7v10.1h17.2V20.4h1.7v23.2H279.1z"/>
	<path class="st0" d="M285.4,43.6V20.4h18.9v1.5H287v8.6h16.6V32H287v10.1h17.2v1.5H285.4z"/>
	<path class="st0" d="M326.6,43.6l-9.5-8.6h-8.2v8.6h-1.7V20.4h11.1c6.4,0,10.4,1.4,10.4,7.3c0,5.5-3.5,7.1-9.2,7.2l9.5,8.6H326.6z    M318.3,21.9h-9.4v11.6h9.4c6.4,0,8.8-1.7,8.8-5.8C327.1,23.6,324.7,21.9,318.3,21.9z"/>
	<path class="st0" d="M360.7,43.6l-2.6-4h-22.5l-2.7,4h-2.2l15.5-23.2h1.2l15.5,23.2H360.7z M346.8,22.8l-10.3,15.4H357L346.8,22.8z   "/>
	<path class="st0" d="M374.2,39h-7.5v4.6h-1.7V20.4h9.1c7.4,0,11.4,2.1,11.4,9.3C385.6,36.8,381.6,39,374.2,39z M374.2,21.9h-7.5   v15.6h7.5c7,0,9.8-2,9.8-7.8C384,23.9,381.2,21.9,374.2,21.9z"/>
	<path class="st0" d="M400.1,37.3v6.3h-1.7v-6.3l-12.9-16.9h2.2l11.5,15.1l11.6-15.1h2.2L400.1,37.3z"/>
</g>
<g>
	<path class="st1" d="M42.4,8.5c-0.1,0-0.1,0-0.2,0c-0.2,0-0.6-0.1-0.9-0.1c-1.8-0.2-4.9-0.3-6.8-0.1c-2,0.1-4.7,0.4-7.1,0.5   c0,0-0.1,0-0.1,0c-0.6,0-1.3,0-1.9,0c0.8,2.4,4.5,2.5,5.6,2.5c1.1,0,5.3-0.9,8.8-0.7c1.2,0.1,2.3,0.2,3.3,0.4   c0.3,0,0.5,0.1,0.8,0.2c6.8,1.3,10.3,5,10.7,11.2c0,0.2,0,0.5,0,0.8c0.2,0.3,0.5,0.6,0.6,0.8c0,0,0,0,0,0.1c0.1-0.7,0.1-1.4,0.2-2   C55.8,15.5,52.6,9.7,42.4,8.5"/>
	<path class="st1" d="M54.2,36.3c-0.1-2.1-0.4-4.8-0.5-7.3c0-0.2,0-0.4,0-0.5c0-0.4,0-0.8,0-1.2c-2.4,0.8-2.5,4.5-2.5,5.6   c0,1.1,0.9,5.3,0.7,8.8c-0.1,1.1-0.2,2.1-0.3,3c0,0.3-0.1,0.6-0.2,0.9c-1.3,6.9-4.9,10.5-11.3,10.9c-0.2,0-0.5,0-0.8,0   c-0.3,0.3-0.6,0.5-0.8,0.7c0.7,0.1,1.4,0.1,2,0.2c6.4,0.2,12.3-3,13.5-13.3c0-0.1,0-0.1,0-0.2c0-0.3,0.1-0.7,0.1-1.1   C54.2,40.9,54.3,38.1,54.2,36.3"/>
	<path class="st1" d="M29.4,52.6c-1.1,0-5.3,0.9-8.8,0.7c-1.2-0.1-2.3-0.2-3.3-0.4c-0.3,0-0.5-0.1-0.8-0.2   C9.7,51.4,6.2,47.8,5.8,41.6c0-0.2,0-0.5,0-0.8c-0.2-0.3-0.5-0.6-0.6-0.8c0,0,0,0,0-0.1C5,40.7,5,41.3,5,41.9   c-0.2,6.3,3,12.2,13.1,13.4c0.1,0,0.1,0,0.2,0c0.2,0,0.6,0.1,0.9,0.1c1.8,0.1,4.9,0.3,6.8,0.1c2-0.1,4.7-0.4,7.1-0.5   c0,0,0.1,0,0.1,0c0.6,0,1.3,0,1.9,0C34.2,52.7,30.6,52.6,29.4,52.6"/>
	<path class="st1" d="M20.1,6.5c-6.4-0.2-12.3,3-13.5,13.3c0,0.1,0,0.1,0,0.2c0,0.3-0.1,0.7-0.1,1.1c-0.1,1.9-0.2,4.6-0.1,6.4   c0.1,2.1,0.4,4.8,0.5,7.3c0,0.2,0,0.4,0,0.5c0,0.4,0,0.8,0,1.2c2.4-0.8,2.5-4.5,2.5-5.6c0-1.1-0.9-5.3-0.7-8.8   c0.1-1.1,0.2-2.1,0.3-3c0-0.3,0.1-0.6,0.1-0.9c1.3-6.9,4.9-10.5,11.3-10.9c0.2,0,0.5,0,0.8,0c0.3-0.3,0.6-0.5,0.8-0.7   C21.3,6.6,20.7,6.6,20.1,6.5"/>
	<path class="st2" d="M55.4,23.9C55.4,23.8,55.4,23.8,55.4,23.9c-0.2-0.3-0.4-0.5-0.7-0.8c-1.2-1.4-3.2-3.6-4.6-4.8   c-1.5-1.3-3.6-3-5.4-4.7c0,0-0.1-0.1-0.1-0.1c-0.5-0.4-0.9-0.9-1.4-1.3c-1.1,2.3,1.4,4.9,2.2,5.7c0.8,0.8,4.4,3.1,6.7,5.7   c0.8,0.9,1.4,1.7,2,2.6c0.2,0.2,0.3,0.5,0.5,0.7c3.9,5.7,3.8,10.8-0.4,15.5c-0.1,0.1-0.2,0.2-0.4,0.4c0,0.4-0.1,0.8-0.1,1.1   c0.5-0.4,0.9-0.8,1.3-1.1C59.9,38.4,61.8,31.9,55.4,23.9"/>
	<path class="st2" d="M44.4,47.3c-0.8,0.8-3.1,4.4-5.7,6.7c-0.8,0.7-1.6,1.4-2.4,1.9c-0.2,0.2-0.5,0.3-0.7,0.5   c-5.8,3.9-10.9,3.9-15.7-0.3c-0.2-0.2-0.5-0.4-0.7-0.7c-0.3,0-0.6-0.1-0.9-0.1c0,0-0.1,0-0.2,0c0.5,0.6,1,1.2,1.4,1.7   c4.3,4.7,10.8,6.6,18.9,0.1c0,0,0,0,0.1,0c0.2-0.2,0.5-0.4,0.8-0.7c1.4-1.2,3.5-3.1,4.7-4.5c1.4-1.6,3.1-3.7,4.8-5.5   c0.1-0.1,0.2-0.3,0.4-0.4c0.3-0.3,0.6-0.6,0.9-0.9C47.8,44,45.2,46.5,44.4,47.3"/>
	<path class="st2" d="M41,6.8c-4.3-4.7-10.8-6.6-18.9-0.1c0,0,0,0-0.1,0.1c-0.2,0.2-0.5,0.4-0.8,0.7c-1.4,1.2-3.5,3.1-4.7,4.5   c-1.4,1.6-3.1,3.7-4.8,5.5l-0.4,0.4c-0.3,0.3-0.6,0.6-0.9,0.9c2.3,1.1,4.9-1.4,5.7-2.2c0.8-0.8,3.1-4.4,5.7-6.7   c0.8-0.7,1.6-1.4,2.4-1.9c0.2-0.2,0.5-0.3,0.7-0.5c5.8-3.9,10.9-3.9,15.7,0.3c0.2,0.2,0.5,0.4,0.7,0.7c0.3,0,0.6,0.1,0.9,0.1   c0,0,0.1,0,0.2,0C42,7.8,41.5,7.3,41,6.8"/>
	<path class="st2" d="M15,45.9c-0.8-0.8-4.4-3.1-6.7-5.7c-0.8-0.9-1.4-1.7-2-2.5c-0.2-0.2-0.3-0.5-0.5-0.7C1.9,31.2,2,26.2,6.1,21.5   c0.1-0.1,0.2-0.2,0.4-0.4c0-0.4,0.1-0.8,0.1-1.1c-0.5,0.4-0.9,0.8-1.3,1.1C0.6,25.5-1.3,31.9,5.1,40c0,0,0,0,0,0.1   c0.2,0.2,0.4,0.5,0.6,0.8c1.2,1.4,3.2,3.6,4.6,4.8c1.5,1.3,3.6,3,5.4,4.7c0,0,0.1,0.1,0.1,0.1c0.5,0.4,0.9,0.9,1.4,1.3   C18.3,49.4,15.8,46.8,15,45.9"/>
</g>
</svg>